<svg width="24" height="25" viewBox="0 0 24 25" fill="none" xmlns="http://www.w3.org/2000/svg">
<g clip-path="url(#clip0_45_3617)">
<path d="M6.99982 24.5C6.86821 24.5007 6.73775 24.4755 6.61591 24.4257C6.49407 24.376 6.38326 24.3027 6.28982 24.21C6.19609 24.117 6.12169 24.0064 6.07093 23.8846C6.02016 23.7627 5.99402 23.632 5.99402 23.5C5.99402 23.368 6.02016 23.2373 6.07093 23.1154C6.12169 22.9935 6.19609 22.8829 6.28982 22.79L14.4598 14.62C15.0216 14.0575 15.3372 13.295 15.3372 12.5C15.3372 11.705 15.0216 10.9425 14.4598 10.38L6.28982 2.21C6.10151 2.0217 5.99573 1.7663 5.99573 1.5C5.99573 1.2337 6.10151 0.978305 6.28982 0.790002C6.47812 0.601698 6.73352 0.495911 6.99982 0.495911C7.26612 0.495911 7.52151 0.601698 7.70982 0.790002L15.8798 8.95999C16.3454 9.42445 16.7149 9.9762 16.9669 10.5837C17.219 11.1911 17.3488 11.8423 17.3488 12.5C17.3488 13.1577 17.219 13.8089 16.9669 14.4163C16.7149 15.0238 16.3454 15.5755 15.8798 16.04L7.70982 24.21C7.61638 24.3027 7.50556 24.376 7.38372 24.4257C7.26189 24.4755 7.13142 24.5007 6.99982 24.5Z" fill="white"/>
</g>
<defs>
<clipPath id="clip0_45_3617">
<rect width="24" height="24" fill="white" transform="translate(0 0.5)"/>
</clipPath>
</defs>
</svg>
