<svg width="24" height="25" viewBox="0 0 24 25" fill="none" xmlns="http://www.w3.org/2000/svg">
<g clip-path="url(#clip0_45_3614)">
<path d="M17.1699 24.5C17.0383 24.5007 16.9078 24.4755 16.786 24.4257C16.6641 24.376 16.5533 24.3027 16.4599 24.21L8.28986 16.04C7.82423 15.5755 7.4548 15.0238 7.20274 14.4163C6.95067 13.8089 6.82092 13.1577 6.82092 12.5C6.82092 11.8423 6.95067 11.1911 7.20274 10.5837C7.4548 9.9762 7.82423 9.42445 8.28986 8.95999L16.4599 0.790002C16.5531 0.696764 16.6638 0.622803 16.7856 0.572342C16.9074 0.521882 17.038 0.495911 17.1699 0.495911C17.3017 0.495911 17.4323 0.521882 17.5541 0.572342C17.6759 0.622803 17.7866 0.696764 17.8799 0.790002C17.9731 0.88324 18.0471 0.99393 18.0975 1.11575C18.148 1.23757 18.174 1.36814 18.174 1.5C18.174 1.63186 18.148 1.76243 18.0975 1.88425C18.0471 2.00607 17.9731 2.11676 17.8799 2.21L9.70986 10.38C9.14806 10.9425 8.8325 11.705 8.8325 12.5C8.8325 13.295 9.14806 14.0575 9.70986 14.62L17.8799 22.79C17.9736 22.8829 18.048 22.9935 18.0988 23.1154C18.1495 23.2373 18.1757 23.368 18.1757 23.5C18.1757 23.632 18.1495 23.7627 18.0988 23.8846C18.048 24.0064 17.9736 24.117 17.8799 24.21C17.7864 24.3027 17.6756 24.376 17.5538 24.4257C17.4319 24.4755 17.3015 24.5007 17.1699 24.5Z" fill="white"/>
</g>
<defs>
<clipPath id="clip0_45_3614">
<rect width="24" height="24" fill="white" transform="translate(0 0.5)"/>
</clipPath>
</defs>
</svg>
