<svg width="41" height="40" viewBox="0 0 41 40" fill="none" xmlns="http://www.w3.org/2000/svg">
<path d="M10.3767 34.29C11.8423 35.5178 13.5781 36.3808 15.4417 36.8083C15.62 36.8667 15.74 36.6333 15.62 36.5167C11.6283 32.7083 13.8217 28.5867 15.4417 26.7283C16.5967 25.4017 18.2417 23.2167 18.1217 20.2867C18.1217 19.9933 18.4217 19.7583 18.6583 19.935C20.9233 21.1067 22.4717 23.685 22.8883 25.7933C23.545 25.15 23.7833 24.1533 23.7833 23.275C23.7833 22.9817 24.14 22.7467 24.4383 22.9817C26.5833 24.915 30.2767 31.4767 24.3183 36.6317C24.2 36.75 24.3183 36.985 24.4383 36.9267C26.245 36.453 27.9441 35.6372 29.4433 34.5233C39.155 27.0233 32.8383 13.7233 28.7267 9.32999C28.1917 8.80165 27.2383 9.15332 27.2383 9.91499C27.1783 11.4983 26.7017 13.255 25.4517 14.4267C24.4983 10.4433 21.3217 5.91832 16.7933 3.69165C16.1983 3.39832 15.4833 3.86665 15.5433 4.51165C15.66 9.96165 12.105 13.4317 9.00667 17.9433C6.265 21.985 4.47834 29.4267 10.3767 34.29Z" fill="#C51100"/>
</svg>
