<svg width="17" height="17" viewBox="0 0 17 17" fill="none" xmlns="http://www.w3.org/2000/svg">
<circle cx="8.66663" cy="8.5" r="8" fill="#AEAEAE"/>
<path d="M6.80647 7.13086H5.13483V12.4616H6.80647V7.13086Z" fill="black"/>
<path d="M11.3284 7.01536C11.2667 7.00766 11.2013 7.00381 11.1358 6.99996C10.1998 6.96144 9.67214 7.51608 9.48726 7.75489C9.43718 7.82037 9.41407 7.85889 9.41407 7.85889V7.14632H7.81561V12.4771H9.41407H9.48726C9.48726 11.934 9.48726 11.3948 9.48726 10.8517C9.48726 10.5589 9.48726 10.2662 9.48726 9.97348C9.48726 9.61142 9.46029 9.22624 9.64133 8.895C9.79539 8.61767 10.0727 8.47901 10.3847 8.47901C11.3091 8.47901 11.3284 9.31483 11.3284 9.39187C11.3284 9.39572 11.3284 9.39957 11.3284 9.39957V12.5002H13V9.0221C13 7.83193 12.3953 7.13091 11.3284 7.01536Z" fill="black"/>
<path d="M5.97063 6.44126C6.50669 6.44126 6.94126 6.0067 6.94126 5.47063C6.94126 4.93457 6.50669 4.5 5.97063 4.5C5.43456 4.5 5 4.93457 5 5.47063C5 6.0067 5.43456 6.44126 5.97063 6.44126Z" fill="black"/>
</svg>
